<?xml version="1.0" standalone="no"?><!DOCTYPE svg PUBLIC "-//W3C//DTD SVG 1.1//EN" "http://www.w3.org/Graphics/SVG/1.1/DTD/svg11.dtd"><svg t="1526018576702" class="icon" style="" viewBox="0 0 1024 1024" version="1.1" xmlns="http://www.w3.org/2000/svg" p-id="7322" xmlns:xlink="http://www.w3.org/1999/xlink" width="200" height="200"><defs><style type="text/css"></style></defs><path d="M512.610227 147.69851h-12.554463a91.229095 91.229095 0 0 1 2.510893 19.529164A79.232608 79.232608 0 0 1 353.866022 206.56499 242.161634 242.161634 0 1 0 512.610227 147.69851z" fill="#FFC824" p-id="7323"></path><path d="M753.376921 83.810245A394.489114 394.489114 0 0 0 415.522383 11.552338 380.539711 380.539711 0 0 0 131.791528 300.862954 390.583281 390.583281 0 0 0 267.100736 693.399151a165.718906 165.718906 0 0 1 63.609277 128.892483 89.834155 89.834155 0 0 0 62.493325 85.370346V948.673224a75.326776 75.326776 0 0 0 75.326776 75.326776h86.765286a75.326776 75.326776 0 0 0 75.326776-75.326776v-41.011244a90.113143 90.113143 0 0 0 62.772313-85.649334A161.255098 161.255098 0 0 1 753.097933 697.583972a390.583281 390.583281 0 0 0 0-613.773727z m-178.552357 864.862979a19.529164 19.529164 0 0 1-19.529164 19.529164h-86.765286a19.808152 19.808152 0 0 1-19.529164-19.529164v-35.989459h125.823614z m143.67885-296.006329a214.820805 214.820805 0 0 0-80.906537 169.903727 34.873507 34.873507 0 0 1-34.873507 34.594519h-181.621226a34.873507 34.873507 0 0 1-34.594519-34.594519 221.516518 221.516518 0 0 0-83.696418-172.41462A334.78567 334.78567 0 0 1 186.194199 312.85944 324.7421 324.7421 0 0 1 428.91381 65.955009 350.130013 350.130013 0 0 1 512.610227 55.911439a334.78567 334.78567 0 0 1 207.288127 596.476468z" fill="#6B400D" p-id="7324"></path><path d="M420.823156 195.405468a27.898806 27.898806 0 0 1-25.94589-16.739284 27.898806 27.898806 0 0 1 13.949403-36.268447 27.898806 27.898806 0 0 1 22.040057 51.333802 30.688686 30.688686 0 0 1-10.04357 1.673929zM285.23496 338.80533a35.152495 35.152495 0 0 1-9.206606-1.394941 27.898806 27.898806 0 0 1-17.29726-35.710471 265.317643 265.317643 0 0 1 53.844695-90.671119 27.898806 27.898806 0 0 1 41.569221 37.105412 212.309912 212.309912 0 0 0-42.685173 71.978919 27.898806 27.898806 0 0 1-26.224877 18.6922z" fill="#6B400D" p-id="7325"></path></svg>