<?xml version="1.0" standalone="no"?><!DOCTYPE svg PUBLIC "-//W3C//DTD SVG 1.1//EN" "http://www.w3.org/Graphics/SVG/1.1/DTD/svg11.dtd"><svg t="1526016859615" class="icon" style="" viewBox="0 0 1024 1024" version="1.1" xmlns="http://www.w3.org/2000/svg" p-id="2444" xmlns:xlink="http://www.w3.org/1999/xlink" width="200" height="200"><defs><style type="text/css"></style></defs><path d="M550.208955 382.089552m-351.522388 0a351.522388 351.522388 0 1 0 703.044776 0 351.522388 351.522388 0 1 0-703.044776 0Z" fill="#FFCB57" p-id="2445"></path><path d="M504.358209 1008.716418a504.358209 504.358209 0 1 1 504.358209-504.358209 504.358209 504.358209 0 0 1-504.358209 504.358209z m0-947.58209a443.223881 443.223881 0 1 0 443.223881 443.223881A443.223881 443.223881 0 0 0 504.358209 61.134328z" fill="#472D22" p-id="2446"></path><path d="M770.903881 305.671642a30.567164 30.567164 0 0 1-23.231045-10.698508A320.955224 320.955224 0 0 0 504.358209 183.402985a30.567164 30.567164 0 0 1 0-61.134328 382.089552 382.089552 0 0 1 290.38806 132.967164 30.567164 30.567164 0 0 1-23.842388 50.435821zM993.432836 1024a30.567164 30.567164 0 0 1-21.549851-9.017313l-152.835821-152.835821a30.567164 30.567164 0 0 1 43.099702-43.099702l152.835821 152.835821A30.567164 30.567164 0 0 1 993.432836 1024z" fill="#472D22" p-id="2447"></path></svg>