<?xml version="1.0" standalone="no"?><!DOCTYPE svg PUBLIC "-//W3C//DTD SVG 1.1//EN" "http://www.w3.org/Graphics/SVG/1.1/DTD/svg11.dtd"><svg t="1526020481149" class="icon" style="" viewBox="0 0 1024 1024" version="1.1" xmlns="http://www.w3.org/2000/svg" p-id="3097" xmlns:xlink="http://www.w3.org/1999/xlink" width="200" height="200"><defs><style type="text/css"></style></defs><path d="M1019.61284949 858.55009337c0 89.34567367-71.92199851 161.78112626-160.62963826 161.78112626H165.01562368c-88.70647581 0-160.62963826-72.43545259-160.62963826-161.78112626V159.57836686c0-89.34567367 71.92199851-161.78112626 160.62963826-161.78112625h693.96758755c88.70647581 0 160.62963826 72.43545259 160.62963826 161.78112625v698.97172651z" fill="#E74B94" p-id="3098"></path><path d="M536.91125646 218.25534407h-0.00232789v329.05888882H207.8512037v0.00232903c0 181.73481529 147.32523861 329.05888882 329.06005276 329.05888882s329.05888882-147.32407467 329.05888996-329.05888882-147.32407467-329.06121785-329.05888996-329.06121785z" fill="#FFFFFF" p-id="3099"></path><path d="M487.08757845 170.91161429c-181.73481529 0-329.05888882 147.32407467-329.05888882 329.05888882h329.05888882V170.91161429z" fill="#FFFFFF" p-id="3100"></path></svg>