<?xml version="1.0" standalone="no"?><!DOCTYPE svg PUBLIC "-//W3C//DTD SVG 1.1//EN" "http://www.w3.org/Graphics/SVG/1.1/DTD/svg11.dtd"><svg t="1526020756502" class="icon" style="" viewBox="0 0 1098 1024" version="1.1" xmlns="http://www.w3.org/2000/svg" p-id="1088" xmlns:xlink="http://www.w3.org/1999/xlink" width="214.453125" height="200"><defs><style type="text/css"></style></defs><path d="M387.121951 636.878049m-387.121951 0a387.121951 387.121951 0 1 0 774.243902 0 387.121951 387.121951 0 1 0-774.243902 0Z" fill="#FADEE3" p-id="1089"></path><path d="M966.46267072 592.3945635C951.68599003 767.73977239 799.08834381 905.73123735 612.6748327 905.73123735s-339.01115619-137.99146496-353.78783686-313.33667385A113.66677504 113.66677504 0 0 1 158.00773254 479.48083124V252.14728116a113.66677504 113.66677504 0 0 1 113.66677504-113.66677504h52.85505024a363.22217984 363.22217984 0 0 1 576.29054976 0H953.67515782a113.66677504 113.66677504 0 0 1 113.66677504 113.66677504v227.33355008a113.66677504 113.66677504 0 0 1-100.87926214 112.91373226zM612.6748327 848.89785039c154.72889742 0 281.89360242-112.16069063 296.81236651-255.75024411H315.86246619c14.91876409 143.58955349 142.08346909 255.75024413 296.81236651 255.75024411z m0-795.66742528a304.66958222 304.66958222 0 0 0-212.84103622 85.25008101h425.68207245A304.66958222 304.66958222 0 0 0 612.6748327 53.23042511z m397.83371322 213.12520306a71.04173397 71.04173397 0 0 0-71.04173512-71.04173511H285.88285461a71.04173397 71.04173397 0 0 0-71.04173397 71.04173511v198.91685604a71.04173397 71.04173397 0 0 0 71.04173397 71.04173397h653.58395619a71.04173397 71.04173397 0 0 0 71.04173512-71.04173397V266.35562817z" fill="#040405" p-id="1090"></path><path d="M697.9249137 678.39768727c0 39.22924544-38.22045298 71.04173397-85.250081 71.04173511s-85.25008099-31.81248853-85.25008099-71.04173511h170.50016199zM285.88285461 266.35562817h127.87512206v56.83338696h-127.87512206v-56.83338696z m170.50016312 0h56.83338696v56.83338696h-56.83338696v-56.83338696z" fill="#E13455" p-id="1091"></path></svg>