<?xml version="1.0" standalone="no"?><!DOCTYPE svg PUBLIC "-//W3C//DTD SVG 1.1//EN" "http://www.w3.org/Graphics/SVG/1.1/DTD/svg11.dtd"><svg t="1526050510382" class="icon" style="" viewBox="0 0 1024 1024" version="1.1" xmlns="http://www.w3.org/2000/svg" p-id="1811" xmlns:xlink="http://www.w3.org/1999/xlink" width="400" height="400"><defs><style type="text/css"></style></defs><path d="M788.8 648.9984c-148.4544 0-268.8-120.3328-268.8-268.8a267.52 267.52 0 0 1 32.2432-127.6928c-145.5744 3.3152-262.6432 122.112-262.6432 268.4928 0 148.4672 120.3456 268.8 268.8 268.8 102.2336 0 191.1296-57.088 236.5568-141.1072-2.0608 0.0512-4.0704 0.3072-6.1568 0.3072z" fill="#FFF5C7" p-id="1812"></path><path d="M532.8 789.7984c-155.2768 0-281.6-126.3232-281.6-281.6 0-151.6544 123.4304-277.8368 275.1488-281.28 4.0192-0.384 8.8192 2.2144 11.2128 6.1184a12.8 12.8 0 0 1 0.3328 12.7616 256.2944 256.2944 0 0 0-30.6944 121.6c0 141.1584 114.8416 256 256 256 0.8448 0 1.6896-0.0768 2.5088-0.128 1.1136-0.0768 2.2272-0.1536 3.3408-0.1792 4.48-0.4224 8.8448 2.2144 11.2256 6.1056a12.8 12.8 0 0 1 0.3456 12.7744 281.5104 281.5104 0 0 1-247.8208 147.8272z m-27.3536-535.8848c-127.9104 13.824-228.6464 123.6608-228.6464 254.2848 0 141.1456 114.8416 256 256 256a255.872 255.872 0 0 0 214.1312-115.6608c-147.7376-8.4608-265.3312-131.3152-265.3312-281.1392 0-39.104 8.2048-77.9008 23.8464-113.4848z" fill="#FFD732" p-id="1813"></path><path d="M704 448h-12.8v-12.8a12.8 12.8 0 1 0-25.6 0v12.8h-12.8a12.8 12.8 0 1 0 0 25.6h12.8v12.8a12.8 12.8 0 1 0 25.6 0v-12.8h12.8a12.8 12.8 0 1 0 0-25.6zM844.8 307.2h-25.6v-25.6a12.8 12.8 0 1 0-25.6 0v25.6h-25.6a12.8 12.8 0 1 0 0 25.6h25.6v25.6a12.8 12.8 0 1 0 25.6 0v-25.6h25.6a12.8 12.8 0 1 0 0-25.6z" fill="#FFD732" p-id="1814"></path></svg>