<?xml version="1.0" standalone="no"?><!DOCTYPE svg PUBLIC "-//W3C//DTD SVG 1.1//EN" "http://www.w3.org/Graphics/SVG/1.1/DTD/svg11.dtd"><svg t="1526020357591" class="icon" style="" viewBox="0 0 1024 1024" version="1.1" xmlns="http://www.w3.org/2000/svg" p-id="1692" xmlns:xlink="http://www.w3.org/1999/xlink" width="200" height="200"><defs><style type="text/css"></style></defs><path d="M234.54550546 877.1213167c27.96540207 20.89549705 58.28743911 38.49170507 90.49478418 52.47440612 22.93791404-18.69597103 48.5466811-33.62132607 76.19786513-44.77606508 34.56398006-13.82559203 70.85615914-20.73838803 107.61966524-20.73838803 67.55687014 0 131.97156027 23.09502305 183.97463935 65.51445311 32.05023607-13.98270102 62.37227313-31.57890905 90.33767519-52.47440612-4.556161-29.37938307-4.71327001-59.23009311-0.47132703-88.92369415 5.34170603-36.92061508 17.43909904-71.95592213 35.82085211-104.00615821 18.38175303-32.20734506 42.57653909-60.17274713 71.64170411-83.42487916 23.56635005-18.69597103 49.1751171-33.30710806 76.98341016-44.14762909 2.042417-17.91042605 3.14217999-35.50663407 3.14218002-52.6315151 0-17.12488105-1.09976302-34.72108908-3.14218002-52.63151511-27.65118406-10.68341202-53.41706012-25.45165805-76.82630114-44.14762909-29.22227406-23.25213204-53.41706012-51.37464309-71.79881313-83.42487916s-30.47914606-67.08554313-35.82085211-104.00615822c-4.39905201-29.69360106-4.08483399-59.54431113 0.47132703-88.92369416-27.96540207-20.89549705-58.28743911-38.49170507-90.49478418-52.47440611-51.84597011 42.41943008-116.41776923 65.51445312-183.97463938 65.51445314-36.92061508 0-73.21279417-7.06990501-107.6196652-20.73838805-27.65118406-10.99763002-53.2599511-26.08009405-76.19786517-44.77606509-32.05023607 13.98270102-62.37227313 31.57890905-90.49478417 52.47440611 4.71327001 29.37938307 4.87037901 59.23009311 0.47132701 88.92369416-5.34170603 36.92061508-17.43909904 71.95592213-35.97796108 104.00615822-18.38175303 32.05023607-42.57653909 60.17274713-71.64170415 83.42487916-23.40924106 18.69597103-49.1751171 33.30710806-76.82630113 44.14762909-2.042417 17.75331703-3.14217999 35.50663407-3.14218003 52.63151511 0 17.28199003 1.09976302 34.87819807 3.14218003 52.6315151 27.65118406 10.68341202 53.41706012 25.45165805 76.82630113 44.14762909 29.22227406 23.25213204 53.41706012 51.37464309 71.79881315 83.42487916 33.77843506 58.75876611 46.19004608 126.47274525 35.50663408 192.92985236z" fill="#E1F0FF" p-id="1693"></path><path d="M992.75354095 428.26090285l-2.98507101-19.16729806-18.53886201-5.655924c-52.1601881-15.86800901-95.67938119-50.58909811-122.70212926-97.72179819-27.02274804-47.1327001-35.03530708-102.4350682-22.62369605-155.85212833l4.39905201-18.85308002-14.92535502-12.09739302c-40.21990407-32.67867206-84.83886017-58.60165712-133.07132327-77.14051916l-18.22464404-7.06990501-14.13981002 13.35426502c-39.43435907 37.39194207-90.96611118 57.97322111-145.01160729 57.97322111-53.8883871 0-105.42013921-20.58127904-145.16871629-57.97322111l-14.13981004-13.35426502-18.22464402 7.06990501c-48.07535409 18.69597103-92.85141918 44.61895609-132.91421427 77.14051916l-14.92535502 12.09739302 4.399052 18.85308002c12.41161103 53.41706012 4.39905201 108.71942821-22.78080505 155.85212833-26.55142107 46.3471551-71.17037714 82.01089817-122.54502024 97.56468919l-18.38175304 5.65592402-2.985071 19.16729802c-4.08483399 26.08009405-6.28436002 52.00307911-6.28436001 77.14051915s2.19952601 51.2175341 6.28436001 77.14051916L20.24882902 601.55213018l18.38175304 5.655924c52.1601881 15.86800901 95.67938119 50.58909811 122.70212925 97.7217982 27.17985706 47.4469181 35.19241606 102.59217721 22.62369604 155.69501931l-4.399052 18.85308003 14.92535502 12.09739304c40.06279507 32.52156306 84.68175116 58.60165712 132.91421427 77.14051913l18.06753502 7.06990504 14.13981004-13.35426504c39.59146809-37.39194207 91.28032918-57.97322111 145.16871628-57.97322111 54.2026051 0 105.73435722 20.58127904 145.01160729 57.97322111l14.13981003 13.35426504 18.22464404-7.06990504c48.23246309-18.69597103 93.0085282-44.61895609 132.91421425-77.14051913l14.92535504-12.09739304-4.399052-18.69597103c-12.09739302-52.4744061-3.92772502-109.34786421 22.78080503-155.85212831 26.55142107-46.3471551 71.17037714-82.01089817 122.70212925-97.7217982L989.61136095 601.55213018l2.985071-19.16729804c4.08483399-26.23720306 6.127251-52.1601881 6.127251-77.14051916 0.15710901-24.98033105-1.885308-50.90331611-5.970142-76.98341013z m-43.20497508 128.20094424c-26.86563906 10.36919402-51.84597011 24.66611305-74.62677514 42.7336481-28.27962006 22.62369604-51.84597011 49.80355309-69.59928716 81.06824415-17.91042605 31.10758207-29.53649205 65.04312613-34.87819804 101.02108719-4.24194301 28.75094705-4.08483399 57.81611211 0.47132699 86.25284117-27.17985706 20.26706103-56.55924012 37.39194207-87.66682217 51.0604251-50.4319891-41.16255809-112.96137123-63.62914512-178.47582437-63.62914512-35.82085206 0-71.01326813 6.75568702-104.4774852 20.26706103-26.86563906 10.68341202-51.68886111 25.29454905-73.99833915 43.36208409-31.26469106-13.66848304-60.64407412-30.63625506-87.82393118-51.0604251 10.36919402-64.41469013-1.57108999-130.24336126-34.24976207-187.43103737-17.91042605-31.26469106-41.47677609-58.44454811-69.75639613-81.06824415-22.62369604-18.06753504-47.76113611-32.36445406-74.62677514-42.7336481-2.042417-17.28199003-3.14217999-34.40687107-3.14218001-51.0604251 0-16.65355405 1.09976302-33.77843506 3.14218001-51.06042509 26.86563906-10.36919402 51.84597011-24.66611305 74.62677514-42.73364809 28.27962006-22.46658704 51.84597011-49.80355309 69.59928714-80.91113516 17.91042605-31.10758207 29.69360106-65.04312613 34.87819806-101.02108721 4.24194301-28.75094705 3.92772502-57.81611211-0.471327-86.25284116 27.33696604-20.26706103 56.71634912-37.39194207 87.82393118-51.06042509 22.30947806 18.06753504 47.1327001 32.67867206 73.99833915 43.36208408 33.46421707 13.35426503 68.65663314 20.26706103 104.4774852 20.26706104 65.51445312 0 128.04383525-22.46658704 178.47582437-63.62914512 31.26469106 13.66848304 60.64407412 30.63625506 87.82393115 51.06042509-4.556161 28.43672906-4.71327001 57.50189412-0.47132699 86.25284116 5.18459701 35.82085206 16.96777203 69.91350514 34.87819808 101.02108721C823.07582062 361.64668671 846.64217067 388.98365275 874.92179073 411.4502398c22.62369604 18.06753504 47.76113611 32.36445406 74.62677514 42.73364809 2.042417 17.43909904 3.14217999 34.56398006 3.14218 51.06042509-0.15710901 16.65355405-1.25687199 33.77843506-3.14218 51.21753411z" fill="#446EB1" p-id="1694"></path><path d="M509.01492899 707.28648739c-108.24810121 0-196.38625039-88.13814917-196.38625039-196.38625041s88.13814917-196.38625039 196.38625039-196.38625039 196.38625039 88.13814917 196.38625039 196.38625039-88.13814917 196.38625039-196.38625039 196.38625041z m0-339.66965869c-79.02582716 0-143.44051728 64.25758112-143.44051727 143.44051729s64.25758112 143.44051728 143.44051727 143.44051731c79.02582716 0 143.44051728-64.25758112 143.44051729-143.44051731s-64.41469013-143.44051728-143.44051729-143.44051729z" fill="#6D9EE8" p-id="1695"></path></svg>